<svg width="145" height="25" viewBox="0 0 145 25" fill="none" xmlns="http://www.w3.org/2000/svg">
<path d="M14.8572 13C14.8572 14.578 13.578 15.8571 12.0001 15.8571C10.4221 15.8571 9.14292 14.578 9.14292 13C9.14292 11.422 10.4221 10.1429 12.0001 10.1429C13.578 10.1429 14.8572 11.422 14.8572 13Z" fill="white"/>
<path fill-rule="evenodd" clip-rule="evenodd" d="M12.0001 25C18.0454 25 23.0467 20.5296 23.8785 14.7143H16.8503C16.1443 16.7118 14.2393 18.1429 12.0001 18.1429C9.76083 18.1429 7.85584 16.7118 7.14984 14.7143H0.121582C0.953404 20.5296 5.95468 25 12.0001 25ZM7.14984 11.2857H0.121582C0.953404 5.47035 5.95468 1 12.0001 1C18.0454 1 23.0467 5.47035 23.8785 11.2857H16.8503C16.1443 9.28824 14.2393 7.85714 12.0001 7.85714C9.76083 7.85714 7.85584 9.28824 7.14984 11.2857ZM14.8572 13C14.8572 14.578 13.578 15.8571 12.0001 15.8571C10.4221 15.8571 9.14292 14.578 9.14292 13C9.14292 11.422 10.4221 10.1429 12.0001 10.1429C13.578 10.1429 14.8572 11.422 14.8572 13Z" fill="white"/>
<path d="M54.328 9.576C54.328 10.552 54.104 11.448 53.656 12.264C53.208 13.064 52.52 13.712 51.592 14.208C50.664 14.704 49.512 14.952 48.136 14.952H45.592V21H41.488V4.152H48.136C49.48 4.152 50.616 4.384 51.544 4.848C52.472 5.312 53.168 5.952 53.632 6.768C54.096 7.584 54.328 8.52 54.328 9.576ZM47.824 11.688C48.608 11.688 49.192 11.504 49.576 11.136C49.96 10.768 50.152 10.248 50.152 9.576C50.152 8.904 49.96 8.384 49.576 8.016C49.192 7.648 48.608 7.464 47.824 7.464H45.592V11.688H47.824ZM62.5606 21.192C61.2486 21.192 60.0646 20.912 59.0086 20.352C57.9686 19.792 57.1446 18.992 56.5366 17.952C55.9446 16.912 55.6486 15.696 55.6486 14.304C55.6486 12.928 55.9526 11.72 56.5606 10.68C57.1686 9.624 58.0006 8.816 59.0566 8.256C60.1126 7.696 61.2966 7.416 62.6086 7.416C63.9206 7.416 65.1046 7.696 66.1606 8.256C67.2166 8.816 68.0486 9.624 68.6566 10.68C69.2646 11.72 69.5686 12.928 69.5686 14.304C69.5686 15.68 69.2566 16.896 68.6326 17.952C68.0246 18.992 67.1846 19.792 66.1126 20.352C65.0566 20.912 63.8726 21.192 62.5606 21.192ZM62.5606 17.64C63.3446 17.64 64.0086 17.352 64.5526 16.776C65.1126 16.2 65.3926 15.376 65.3926 14.304C65.3926 13.232 65.1206 12.408 64.5766 11.832C64.0486 11.256 63.3926 10.968 62.6086 10.968C61.8086 10.968 61.1446 11.256 60.6166 11.832C60.0886 12.392 59.8246 13.216 59.8246 14.304C59.8246 15.376 60.0806 16.2 60.5926 16.776C61.1206 17.352 61.7766 17.64 62.5606 17.64ZM79.9298 21L75.8498 15.384V21H71.7458V3.24H75.8498V13.056L79.9058 7.608H84.9698L79.4018 14.328L85.0178 21H79.9298ZM99.2057 14.088C99.2057 14.472 99.1818 14.872 99.1338 15.288H89.8458C89.9098 16.12 90.1738 16.76 90.6378 17.208C91.1178 17.64 91.7018 17.856 92.3898 17.856C93.4138 17.856 94.1258 17.424 94.5258 16.56H98.8938C98.6698 17.44 98.2618 18.232 97.6698 18.936C97.0938 19.64 96.3658 20.192 95.4858 20.592C94.6058 20.992 93.6218 21.192 92.5338 21.192C91.2218 21.192 90.0538 20.912 89.0298 20.352C88.0058 19.792 87.2058 18.992 86.6298 17.952C86.0538 16.912 85.7658 15.696 85.7658 14.304C85.7658 12.912 86.0458 11.696 86.6058 10.656C87.1818 9.616 87.9818 8.816 89.0058 8.256C90.0298 7.696 91.2058 7.416 92.5338 7.416C93.8298 7.416 94.9818 7.688 95.9898 8.232C96.9978 8.776 97.7818 9.552 98.3418 10.56C98.9178 11.568 99.2057 12.744 99.2057 14.088ZM95.0058 13.008C95.0058 12.304 94.7658 11.744 94.2858 11.328C93.8058 10.912 93.2058 10.704 92.4858 10.704C91.7978 10.704 91.2138 10.904 90.7338 11.304C90.2698 11.704 89.9818 12.272 89.8698 13.008H95.0058ZM95.2938 4.176L89.5098 6.6V3.768L95.2938 0.983999V4.176ZM100.555 14.28C100.555 12.904 100.811 11.696 101.323 10.656C101.851 9.616 102.563 8.816 103.459 8.256C104.355 7.696 105.355 7.416 106.459 7.416C107.339 7.416 108.139 7.6 108.859 7.968C109.595 8.336 110.171 8.832 110.587 9.456V3.24H114.691V21H110.587V19.08C110.203 19.72 109.651 20.232 108.931 20.616C108.227 21 107.403 21.192 106.459 21.192C105.355 21.192 104.355 20.912 103.459 20.352C102.563 19.776 101.851 18.968 101.323 17.928C100.811 16.872 100.555 15.656 100.555 14.28ZM110.587 14.304C110.587 13.28 110.299 12.472 109.723 11.88C109.163 11.288 108.475 10.992 107.659 10.992C106.843 10.992 106.147 11.288 105.571 11.88C105.011 12.456 104.731 13.256 104.731 14.28C104.731 15.304 105.011 16.12 105.571 16.728C106.147 17.32 106.843 17.616 107.659 17.616C108.475 17.616 109.163 17.32 109.723 16.728C110.299 16.136 110.587 15.328 110.587 14.304ZM130.284 14.088C130.284 14.472 130.26 14.872 130.212 15.288H120.924C120.988 16.12 121.252 16.76 121.716 17.208C122.196 17.64 122.78 17.856 123.468 17.856C124.492 17.856 125.204 17.424 125.604 16.56H129.972C129.748 17.44 129.34 18.232 128.748 18.936C128.172 19.64 127.444 20.192 126.564 20.592C125.684 20.992 124.7 21.192 123.612 21.192C122.3 21.192 121.132 20.912 120.108 20.352C119.084 19.792 118.284 18.992 117.708 17.952C117.132 16.912 116.844 15.696 116.844 14.304C116.844 12.912 117.124 11.696 117.684 10.656C118.26 9.616 119.06 8.816 120.084 8.256C121.108 7.696 122.284 7.416 123.612 7.416C124.908 7.416 126.06 7.688 127.068 8.232C128.076 8.776 128.86 9.552 129.42 10.56C129.996 11.568 130.284 12.744 130.284 14.088ZM126.084 13.008C126.084 12.304 125.844 11.744 125.364 11.328C124.884 10.912 124.284 10.704 123.564 10.704C122.876 10.704 122.292 10.904 121.812 11.304C121.348 11.704 121.06 12.272 120.948 13.008H126.084ZM140.369 21L137.801 17.28L135.641 21H131.201L135.617 14.16L131.081 7.608H135.689L138.257 11.304L140.417 7.608H144.857L140.369 14.352L144.977 21H140.369Z" fill="white"/>
</svg>
